<?xml version="1.0" encoding="UTF-8"?>
<svg version="1.1" xmlns="http://www.w3.org/2000/svg" width="200" height="200">
<path d="M0 0 C6.00815098 3.8876271 7.788988 8.30193424 10 15 C10.99 14.505 10.99 14.505 12 14 C17.06793316 13.44398575 20.92187191 13.44168367 25.5 15.8125 C28.12420405 18.10867854 29.88655301 19.68628386 30.1953125 23.26171875 C30.17210937 24.06222656 30.14890625 24.86273438 30.125 25.6875 C30.10695313 26.49574219 30.08890625 27.30398437 30.0703125 28.13671875 C30.04710937 28.75160156 30.02390625 29.36648437 30 30 C31.19625 30.0825 32.3925 30.165 33.625 30.25 C37.94952387 30.80874379 40.64591123 32.11392361 44 35 C47.31249425 39.74790843 47.87984611 44.37876099 47 50 C45.64017987 53.79433681 43.75956691 56.43032481 40.5 58.875 C35.84684241 60.96892091 32.12828503 61.09862087 27 61 C27.04640625 61.79664062 27.0928125 62.59328125 27.140625 63.4140625 C27.50561299 74.12906704 27.50561299 74.12906704 23 79 C17.65653558 83.7073377 14.33239218 84.15793576 7.36279297 84.19287109 C6.4682692 84.20104858 5.57374542 84.20922607 4.65211487 84.21765137 C1.68214592 84.24252779 -1.28777506 84.2590299 -4.2578125 84.2734375 C-5.27202145 84.27876118 -6.28623039 84.28408485 -7.33117294 84.28956985 C-12.70254511 84.31631515 -18.07389396 84.33568295 -23.4453125 84.35009766 C-28.98697949 84.36672073 -34.52804892 84.41147519 -40.06949043 84.4624691 C-44.33497782 84.49617588 -48.60032424 84.50767906 -52.86593246 84.51332474 C-54.90802434 84.52003102 -56.95010714 84.5352368 -58.99206924 84.55921555 C-61.85734446 84.59093411 -64.72102015 84.59089336 -67.58642578 84.58349609 C-68.42414017 84.59990143 -69.26185455 84.61630676 -70.12495422 84.63320923 C-76.91146828 84.56180545 -81.65431943 82.2341903 -86.52914619 77.52181053 C-91.856283 71.49820466 -92.45334616 66.0210221 -92.3125 58.23046875 C-91.71595354 52.06366976 -89.51019109 48.51019109 -85.1875 44.1875 C-78.98531291 39.9310971 -74.36315203 38.61246568 -67 39 C-67.226875 38.05125 -67.45375 37.1025 -67.6875 36.125 C-68.49245127 30.17797195 -66.78205609 24.67767706 -63.484375 19.72265625 C-58.85307497 14.12128661 -53.48056923 9.72981163 -46 9 C-41.14343891 8.84582346 -36.78337279 9.04332544 -32 10 C-31.46375 9.113125 -30.9275 8.22625 -30.375 7.3125 C-23.2219825 -3.37911273 -11.29142492 -6.29714082 0 0 Z " fill="#F1F1F1" transform="translate(123,60)"/>
<path d="M0 0 C3.88511167 3.37473507 5.2403266 8.1747394 6.8125 12.9375 C7.4725 12.6075 8.1325 12.2775 8.8125 11.9375 C13.88043316 11.38148575 17.73437191 11.37918367 22.3125 13.75 C24.93670405 16.04617854 26.69905301 17.62378386 27.0078125 21.19921875 C26.98460937 21.99972656 26.96140625 22.80023438 26.9375 23.625 C26.91945312 24.43324219 26.90140625 25.24148437 26.8828125 26.07421875 C26.85960937 26.68910156 26.83640625 27.30398437 26.8125 27.9375 C28.00875 28.02 29.205 28.1025 30.4375 28.1875 C34.76202387 28.74624379 37.45841123 30.05142361 40.8125 32.9375 C44.12499425 37.68540843 44.69234611 42.31626099 43.8125 47.9375 C42.45267987 51.73183681 40.57206691 54.36782481 37.3125 56.8125 C32.73335726 58.87311423 27.82205137 60.04377593 22.8125 58.9375 C20.8125 56.25 20.8125 56.25 18.8125 52.9375 C14.15312322 49.04954322 9.82515527 47.31329095 3.8125 46.9375 C3.78671875 46.28523438 3.7609375 45.63296875 3.734375 44.9609375 C3.3625583 39.23158013 2.72888955 35.41337377 -1.1875 30.9375 C-4.51993219 28.77252743 -7.26331359 28.69604244 -11.1875 28.75 C-12.21875 28.75644531 -13.25 28.76289062 -14.3125 28.76953125 C-16.76818682 28.91300208 -18.84257755 29.2328959 -21.1875 29.9375 C-21.40792969 28.97650391 -21.40792969 28.97650391 -21.6328125 27.99609375 C-23.61130883 20.36637515 -26.47620817 15.43858797 -33.0625 11 C-33.76375 10.649375 -34.465 10.29875 -35.1875 9.9375 C-33.94987635 3.5946788 -30.16229657 0.61283704 -25.1875 -3.0625 C-16.96037653 -8.04207473 -7.41131213 -4.79555491 0 0 Z " fill="#48484A" transform="translate(126.1875,62.0625)"/>
</svg>
